<mxfile host="app.diagrams.net" modified="2023-06-23T22:54:30.004Z" agent="5.0 (Windows)" etag="IMaZqatxLg1T1JLxwfIX" version="21.0.6" type="github">
  <diagram id="C5RBs43oDa-KdzZeNtuy" name="Page-1">
    <mxGraphModel dx="1195" dy="645" grid="1" gridSize="10" guides="1" tooltips="1" connect="1" arrows="1" fold="1" page="1" pageScale="1" pageWidth="827" pageHeight="1169" math="0" shadow="0">
      <root>
        <mxCell id="WIyWlLk6GJQsqaUBKTNV-0" />
        <mxCell id="WIyWlLk6GJQsqaUBKTNV-1" parent="WIyWlLk6GJQsqaUBKTNV-0" />
        <mxCell id="WG2xzah7SvrSQX834Uv9-9" style="edgeStyle=orthogonalEdgeStyle;rounded=0;orthogonalLoop=1;jettySize=auto;html=1;" edge="1" parent="WIyWlLk6GJQsqaUBKTNV-1" source="WG2xzah7SvrSQX834Uv9-8" target="WG2xzah7SvrSQX834Uv9-10">
          <mxGeometry relative="1" as="geometry">
            <mxPoint x="414" y="180" as="targetPoint" />
          </mxGeometry>
        </mxCell>
        <mxCell id="WG2xzah7SvrSQX834Uv9-8" value="start" style="rounded=1;whiteSpace=wrap;html=1;" vertex="1" parent="WIyWlLk6GJQsqaUBKTNV-1">
          <mxGeometry x="354" y="80" width="120" height="60" as="geometry" />
        </mxCell>
        <mxCell id="WG2xzah7SvrSQX834Uv9-11" style="edgeStyle=orthogonalEdgeStyle;rounded=0;orthogonalLoop=1;jettySize=auto;html=1;" edge="1" parent="WIyWlLk6GJQsqaUBKTNV-1" source="WG2xzah7SvrSQX834Uv9-10" target="WG2xzah7SvrSQX834Uv9-12">
          <mxGeometry relative="1" as="geometry">
            <mxPoint x="414" y="280" as="targetPoint" />
          </mxGeometry>
        </mxCell>
        <mxCell id="WG2xzah7SvrSQX834Uv9-10" value="initiate sumOfSquares to 0" style="rounded=0;whiteSpace=wrap;html=1;" vertex="1" parent="WIyWlLk6GJQsqaUBKTNV-1">
          <mxGeometry x="354" y="180" width="120" height="60" as="geometry" />
        </mxCell>
        <mxCell id="WG2xzah7SvrSQX834Uv9-13" style="edgeStyle=orthogonalEdgeStyle;rounded=0;orthogonalLoop=1;jettySize=auto;html=1;" edge="1" parent="WIyWlLk6GJQsqaUBKTNV-1" source="WG2xzah7SvrSQX834Uv9-12" target="WG2xzah7SvrSQX834Uv9-14">
          <mxGeometry relative="1" as="geometry">
            <mxPoint x="414" y="400" as="targetPoint" />
          </mxGeometry>
        </mxCell>
        <mxCell id="WG2xzah7SvrSQX834Uv9-12" value="input of the user numbers" style="shape=parallelogram;perimeter=parallelogramPerimeter;whiteSpace=wrap;html=1;fixedSize=1;" vertex="1" parent="WIyWlLk6GJQsqaUBKTNV-1">
          <mxGeometry x="354" y="280" width="120" height="60" as="geometry" />
        </mxCell>
        <mxCell id="WG2xzah7SvrSQX834Uv9-15" style="edgeStyle=orthogonalEdgeStyle;rounded=0;orthogonalLoop=1;jettySize=auto;html=1;" edge="1" parent="WIyWlLk6GJQsqaUBKTNV-1" source="WG2xzah7SvrSQX834Uv9-14" target="WG2xzah7SvrSQX834Uv9-16">
          <mxGeometry relative="1" as="geometry">
            <mxPoint x="414" y="480" as="targetPoint" />
          </mxGeometry>
        </mxCell>
        <mxCell id="WG2xzah7SvrSQX834Uv9-14" value="read the numbers" style="rounded=0;whiteSpace=wrap;html=1;" vertex="1" parent="WIyWlLk6GJQsqaUBKTNV-1">
          <mxGeometry x="354" y="370" width="120" height="60" as="geometry" />
        </mxCell>
        <mxCell id="WG2xzah7SvrSQX834Uv9-17" style="edgeStyle=orthogonalEdgeStyle;rounded=0;orthogonalLoop=1;jettySize=auto;html=1;" edge="1" parent="WIyWlLk6GJQsqaUBKTNV-1" source="WG2xzah7SvrSQX834Uv9-16" target="WG2xzah7SvrSQX834Uv9-18">
          <mxGeometry relative="1" as="geometry">
            <mxPoint x="414" y="550" as="targetPoint" />
          </mxGeometry>
        </mxCell>
        <mxCell id="WG2xzah7SvrSQX834Uv9-16" value="set loop to iterate over the input numbers" style="rounded=0;whiteSpace=wrap;html=1;" vertex="1" parent="WIyWlLk6GJQsqaUBKTNV-1">
          <mxGeometry x="354" y="450" width="120" height="60" as="geometry" />
        </mxCell>
        <mxCell id="WG2xzah7SvrSQX834Uv9-19" style="edgeStyle=orthogonalEdgeStyle;rounded=0;orthogonalLoop=1;jettySize=auto;html=1;" edge="1" parent="WIyWlLk6GJQsqaUBKTNV-1" source="WG2xzah7SvrSQX834Uv9-18" target="WG2xzah7SvrSQX834Uv9-20">
          <mxGeometry relative="1" as="geometry">
            <mxPoint x="414" y="660" as="targetPoint" />
          </mxGeometry>
        </mxCell>
        <mxCell id="WG2xzah7SvrSQX834Uv9-18" value="get the number from the input" style="rounded=0;whiteSpace=wrap;html=1;" vertex="1" parent="WIyWlLk6GJQsqaUBKTNV-1">
          <mxGeometry x="354" y="555" width="120" height="60" as="geometry" />
        </mxCell>
        <mxCell id="WG2xzah7SvrSQX834Uv9-21" style="edgeStyle=orthogonalEdgeStyle;rounded=0;orthogonalLoop=1;jettySize=auto;html=1;" edge="1" parent="WIyWlLk6GJQsqaUBKTNV-1" source="WG2xzah7SvrSQX834Uv9-20" target="WG2xzah7SvrSQX834Uv9-22">
          <mxGeometry relative="1" as="geometry">
            <mxPoint x="414" y="770" as="targetPoint" />
          </mxGeometry>
        </mxCell>
        <mxCell id="WG2xzah7SvrSQX834Uv9-20" value="calculate the square of the number" style="rounded=0;whiteSpace=wrap;html=1;" vertex="1" parent="WIyWlLk6GJQsqaUBKTNV-1">
          <mxGeometry x="354" y="650" width="120" height="60" as="geometry" />
        </mxCell>
        <mxCell id="WG2xzah7SvrSQX834Uv9-23" style="edgeStyle=orthogonalEdgeStyle;rounded=0;orthogonalLoop=1;jettySize=auto;html=1;" edge="1" parent="WIyWlLk6GJQsqaUBKTNV-1" source="WG2xzah7SvrSQX834Uv9-22" target="WG2xzah7SvrSQX834Uv9-28">
          <mxGeometry relative="1" as="geometry">
            <mxPoint x="414" y="830" as="targetPoint" />
          </mxGeometry>
        </mxCell>
        <mxCell id="WG2xzah7SvrSQX834Uv9-22" value="add the square to the sumOfSquares" style="rounded=0;whiteSpace=wrap;html=1;" vertex="1" parent="WIyWlLk6GJQsqaUBKTNV-1">
          <mxGeometry x="354" y="740" width="120" height="60" as="geometry" />
        </mxCell>
        <mxCell id="WG2xzah7SvrSQX834Uv9-29" style="edgeStyle=orthogonalEdgeStyle;rounded=0;orthogonalLoop=1;jettySize=auto;html=1;entryX=1;entryY=0.5;entryDx=0;entryDy=0;" edge="1" parent="WIyWlLk6GJQsqaUBKTNV-1" source="WG2xzah7SvrSQX834Uv9-28" target="WG2xzah7SvrSQX834Uv9-18">
          <mxGeometry relative="1" as="geometry">
            <Array as="points">
              <mxPoint x="590" y="870" />
              <mxPoint x="590" y="585" />
            </Array>
          </mxGeometry>
        </mxCell>
        <mxCell id="WG2xzah7SvrSQX834Uv9-31" style="edgeStyle=orthogonalEdgeStyle;rounded=0;orthogonalLoop=1;jettySize=auto;html=1;" edge="1" parent="WIyWlLk6GJQsqaUBKTNV-1" source="WG2xzah7SvrSQX834Uv9-28" target="WG2xzah7SvrSQX834Uv9-34">
          <mxGeometry relative="1" as="geometry">
            <mxPoint x="414" y="970" as="targetPoint" />
          </mxGeometry>
        </mxCell>
        <mxCell id="WG2xzah7SvrSQX834Uv9-28" value="if there is more numbers" style="rhombus;whiteSpace=wrap;html=1;" vertex="1" parent="WIyWlLk6GJQsqaUBKTNV-1">
          <mxGeometry x="374" y="830" width="80" height="80" as="geometry" />
        </mxCell>
        <mxCell id="WG2xzah7SvrSQX834Uv9-30" value="Yes" style="text;html=1;align=center;verticalAlign=middle;resizable=0;points=[];autosize=1;strokeColor=none;fillColor=none;" vertex="1" parent="WIyWlLk6GJQsqaUBKTNV-1">
          <mxGeometry x="590" y="715" width="40" height="30" as="geometry" />
        </mxCell>
        <mxCell id="WG2xzah7SvrSQX834Uv9-32" value="No" style="text;html=1;align=center;verticalAlign=middle;resizable=0;points=[];autosize=1;strokeColor=none;fillColor=none;" vertex="1" parent="WIyWlLk6GJQsqaUBKTNV-1">
          <mxGeometry x="410" y="925" width="40" height="30" as="geometry" />
        </mxCell>
        <mxCell id="WG2xzah7SvrSQX834Uv9-35" style="edgeStyle=orthogonalEdgeStyle;rounded=0;orthogonalLoop=1;jettySize=auto;html=1;" edge="1" parent="WIyWlLk6GJQsqaUBKTNV-1" source="WG2xzah7SvrSQX834Uv9-34" target="WG2xzah7SvrSQX834Uv9-36">
          <mxGeometry relative="1" as="geometry">
            <mxPoint x="414" y="1080" as="targetPoint" />
          </mxGeometry>
        </mxCell>
        <mxCell id="WG2xzah7SvrSQX834Uv9-34" value="Display the value of sumsOfSquare" style="rounded=0;whiteSpace=wrap;html=1;" vertex="1" parent="WIyWlLk6GJQsqaUBKTNV-1">
          <mxGeometry x="354" y="970" width="120" height="60" as="geometry" />
        </mxCell>
        <mxCell id="WG2xzah7SvrSQX834Uv9-36" value="End" style="rounded=1;whiteSpace=wrap;html=1;" vertex="1" parent="WIyWlLk6GJQsqaUBKTNV-1">
          <mxGeometry x="354" y="1050" width="120" height="60" as="geometry" />
        </mxCell>
      </root>
    </mxGraphModel>
  </diagram>
</mxfile>
